<?xml version="1.0" encoding="utf-8"?>
<!-- Generator: Adobe Illustrator 27.5.0, SVG Export Plug-In . SVG Version: 6.00 Build 0)  -->
<svg version="1.1" xmlns="http://www.w3.org/2000/svg" xmlns:xlink="http://www.w3.org/1999/xlink" x="0px" y="0px"
	 viewBox="0 0 500 500" style="enable-background:new 0 0 500 500;" xml:space="preserve">
<g id="Background_Complete">
	<rect y="382.398" style="fill:#EBEBEB;" width="500" height="0.25"/>
	<g>
		<path style="fill:#EBEBEB;" d="M238.401,337.8H45.302c-3.147,0-5.708-2.561-5.708-5.708V60.66c0-3.147,2.561-5.708,5.708-5.708
			h193.099c3.146,0,5.707,2.561,5.707,5.708v271.432C244.108,335.239,241.547,337.8,238.401,337.8z M45.302,55.203
			c-3.01,0-5.458,2.448-5.458,5.458v271.432c0,3.01,2.448,5.458,5.458,5.458h193.099c3.009,0,5.457-2.448,5.457-5.458V60.66
			c0-3.009-2.448-5.458-5.457-5.458H45.302z"/>
		<g>
			<path style="fill:#EBEBEB;" d="M454.698,337.8H261.599c-3.146,0-5.707-2.561-5.707-5.708V60.66c0-3.147,2.561-5.708,5.707-5.708
				h193.099c3.148,0,5.708,2.561,5.708,5.708v271.432C460.406,335.239,457.845,337.8,454.698,337.8z M261.599,55.203
				c-3.009,0-5.457,2.448-5.457,5.458v271.432c0,3.01,2.448,5.458,5.457,5.458h193.099c3.01,0,5.458-2.448,5.458-5.458V60.66
				c0-3.009-2.448-5.458-5.458-5.458H261.599z"/>
		</g>
	</g>
	<rect y="382.398" style="fill:#EBEBEB;" width="500" height="0.25"/>
	<rect x="416.779" y="398.494" style="fill:#EBEBEB;" width="33.122" height="0.25"/>
	<rect x="322.527" y="401.208" style="fill:#EBEBEB;" width="8.693" height="0.25"/>
	<rect x="396.586" y="389.208" style="fill:#EBEBEB;" width="19.192" height="0.25"/>
	<rect x="52.459" y="390.888" style="fill:#EBEBEB;" width="43.193" height="0.25"/>
	<rect x="131.471" y="395.111" style="fill:#EBEBEB;" width="93.676" height="0.25"/>
	<g>
		<path style="fill:#F0F0F0;" d="M154.367,158.677c12.295,0.033,46.77,5.036,46.77-13.482c0-15.735-16.849-14.577-16.849-14.577
			s0.487-13.633-14.525-15.446c-15.396-1.859-17.72,12.871-17.72,12.871s-26.725-9.38-22.659,14.158c0,0-14.815-2.617-14.815,7.98
			C114.569,162.024,142.456,158.646,154.367,158.677z"/>
		<g>
			<path style="fill:#F5F5F5;" d="M138.876,298.708c24.956,0.075,94.929,11.535,94.929-30.881c0-36.04-34.198-33.388-34.198-33.388
				s0.988-31.225-29.481-35.377c-31.25-4.259-35.967,29.481-35.967,29.481s-54.245-21.484-45.99,32.429
				c0,0-30.071-5.993-30.071,18.278C58.098,306.373,114.702,298.635,138.876,298.708z"/>
			<path style="fill:#F0F0F0;" d="M232.095,302.462c-13.806,0.041-52.516,6.381-52.516-17.084c0-19.938,18.919-18.47,18.919-18.47
				s-0.547-17.274,16.309-19.571c17.288-2.356,19.897,16.309,19.897,16.309s30.009-11.885,25.442,17.94
				c0,0,16.635-3.315,16.635,10.112C276.782,306.702,245.469,302.422,232.095,302.462z"/>
		</g>
		<path style="fill:#F0F0F0;" d="M309.146,204.16c13.77,0.035,52.379,5.314,52.379-14.228c0-16.605-18.87-15.383-18.87-15.383
			s0.545-14.386-16.267-16.299c-17.243-1.962-19.846,13.583-19.846,13.583s-29.931-9.898-25.376,14.941
			c0,0-16.592-2.761-16.592,8.421C264.575,207.691,295.807,204.126,309.146,204.16z"/>
		<g>
			<g>
				<g>
					<path style="fill:#FAFAFA;" d="M268.09,382.282l20.123-130.456l59.841-75.549l20.401-86.04c0,0,49.454,47.788,50.825,49.042
						c1.372,1.254,12.259,130.242,13.771,132.211c1.512,1.969,15.72,24.462,15.72,24.462l6.611,85.937L268.09,382.282z"/>
					<polygon style="fill:#EBEBEB;" points="268.09,382.282 296.768,269.556 337.404,230.823 345.011,279.851 355.245,224.081 
						366.867,243.096 364.344,177.536 366.362,156.561 373.181,170.484 368.454,90.236 402.932,91.033 410.108,128.912 
						419.279,139.278 433.05,271.489 448.771,295.951 455.381,381.888 					"/>
					<path style="fill:#F5F5F5;" d="M369.355,90.671l20.48,66.268l12.203,9.696c0,0,6.436,26.934,6.363,25.212
						s-0.739-31.897-0.739-31.897l3.16-24.622l-7.974-43.859L369.355,90.671z"/>
				</g>
				<polygon style="fill:#F5F5F5;" points="433.05,271.489 437.83,293.767 448.771,295.951 				"/>
			</g>
		</g>
	</g>
	<path style="fill:#F5F5F5;" d="M356.064,337.439c21.873,0.066,83.2,10.11,83.2-27.065c0-31.587-29.973-29.262-29.973-29.262
		s0.866-27.367-25.838-31.006c-27.389-3.732-31.523,25.839-31.523,25.839s-47.543-18.83-40.308,28.422
		c0,0-26.355-5.253-26.355,16.02C285.266,344.157,334.876,337.375,356.064,337.439z"/>
</g>
<g id="Background_Simple" style="display:none;">
	<g style="display:inline;">
		<g>
			<path style="fill:#407BFF;" d="M94.287,177.852c7.754-20.771,25.845-37.387,47.199-43.35c21.354-5.963,45.436-1.123,62.83,12.626
				c13.953,11.03,23.197,26.832,31.62,42.496c8.423,15.665-0.468,4.604,12.015,17.273c12.483,12.669,30.426,21.447,47.908,18.177
				c21.301-3.985,35.467-23.743,46.864-42.175c11.396-18.432,24.195-38.655,44.984-44.773c7.773-2.287,17.858-1.399,21.669,5.751
				c3.157,5.92,0.514,13.138-2.149,19.296c-18.047,41.735-36.094,83.471-54.141,125.206c-11.006,25.452-22.72,51.875-43.999,69.656
				c-25.632,21.419-61.742,26.793-94.753,21.691c-18.273-2.824-36.536-8.82-50.754-20.642
				c-19.153-15.924-28.724-40.206-39.731-62.55c-11.996-24.353-4.51-22.892-19.673-45.41
				C79.882,215.046,94.287,177.852,94.287,177.852z"/>
			<g style="opacity:0.9;">
				<path style="fill:#FFFFFF;" d="M94.287,177.852c7.754-20.771,25.845-37.387,47.199-43.35
					c21.354-5.963,45.436-1.123,62.83,12.626c13.953,11.03,23.197,26.832,31.62,42.496c8.423,15.665-0.468,4.604,12.015,17.273
					c12.483,12.669,30.426,21.447,47.908,18.177c21.301-3.985,35.467-23.743,46.864-42.175
					c11.396-18.432,24.195-38.655,44.984-44.773c7.773-2.287,17.858-1.399,21.669,5.751c3.157,5.92,0.514,13.138-2.149,19.296
					c-18.047,41.735-36.094,83.471-54.141,125.206c-11.006,25.452-22.72,51.875-43.999,69.656
					c-25.632,21.419-61.742,26.793-94.753,21.691c-18.273-2.824-36.536-8.82-50.754-20.642
					c-19.153-15.924-28.724-40.206-39.731-62.55c-11.996-24.353-4.51-22.892-19.673-45.41
					C79.882,215.046,94.287,177.852,94.287,177.852z"/>
			</g>
		</g>
	</g>
</g>
<g id="Shadow">
	<rect x="104.556" y="390.888" style="fill:#EBEBEB;" width="6.333" height="0.25"/>
	<ellipse id="_x3C_Path_x3E__359_" style="fill:#F5F5F5;" cx="252.139" cy="415.693" rx="193.889" ry="11.323"/>
</g>
<g id="Coin">

	
		<g style="opacity:1;" transform="translate(0, -20)">
			<path style="fill:#407BFF;" d="M390.671,97.864c0.506,2.893-1.482,4.828-5.062,5.132l-0.06,2.393h-2.175l0.06-2.393
				c-2.101-0.195-4.042-0.847-5.296-1.674l0.985-2.697c1.302,0.849,2.854,1.392,4.381,1.545l0.096-3.675
				c-2.129-0.609-4.489-1.413-4.95-4.046c-0.506-2.892,1.523-4.849,5.174-5.112l0.06-2.393h2.175l-0.056,2.415
				c1.571,0.151,3.061,0.588,4.219,1.239l-0.854,2.697c-1.046-0.63-2.242-1.001-3.439-1.131l-0.091,3.828
				C387.943,94.579,390.233,95.362,390.671,97.864z M383.667,93.383l0.082-3.132c-1.198,0.24-1.776,0.913-1.652,1.74
				C382.215,92.665,382.826,93.056,383.667,93.383z M387.246,98.429c-0.11-0.63-0.68-1.023-1.49-1.305l-0.066,2.979
				C386.823,99.864,387.391,99.256,387.246,98.429z"/>
		</g>
	
</g>
<g id="Metric">
	<g>
		<g>
			<rect x="239.695" y="255.71" style="fill:#407BFF;" width="59.17" height="160.031"/>
			<rect x="239.68" y="255.555" style="opacity:0.2;" width="16.72" height="160.218"/>
		</g>
		<g>
			<rect x="180.446" y="319.71" style="fill:#407BFF;" width="59.17" height="96.03"/>
			<rect x="180.446" y="319.71" style="opacity:0.2;" width="17.78" height="95.93"/>
		</g>
		<g>
			<rect x="121.23" y="340.1" style="fill:#407BFF;" width="59.17" height="75.64"/>
			<rect x="121.23" y="340.1" style="opacity:0.2;" width="17.6" height="75.54"/>
		</g>
		<g>
			<rect x="62.044" y="360.494" style="fill:#407BFF;" width="59.168" height="55.248"/>
			<rect x="62.046" y="360.439" style="opacity:0.2;" width="16.72" height="55.2"/>
		</g>
	</g>
</g>
<g id="Character">
	<g>
		<g>
			<g>
				<path style="fill:#407BFF;" d="M222.918,132.081c-2.81,3.397-5.704,6.725-8.6,10.048l-2.189,2.479l-1.964,2.19
					c-0.808,0.953-1.34,2.149-1.529,3.452l-0.659,6.455c-0.221,2.19-0.434,4.379-0.691,6.568c-0.483,4.377-0.986,8.753-1.573,13.125
					c-0.206,1.533-1.616,2.608-3.148,2.402c-1.352-0.182-2.347-1.301-2.422-2.614c-0.254-4.4-0.421-8.796-0.57-13.19
					c-0.09-2.198-0.135-4.394-0.189-6.59l-0.149-6.702c0.041-3.083,1.059-6.183,2.822-8.785l2.177-2.928l1.973-2.622
					c2.653-3.479,5.309-6.951,8.048-10.356c1.936-2.406,5.455-2.787,7.861-0.851c2.406,1.936,2.787,5.455,0.851,7.861
					C222.956,132.034,222.928,132.069,222.918,132.081z"/>
				<g>
					<path style="fill:#CB7A63;" d="M199.449,176.692l-3.655,6.205l8.414,0.854l1.481-6.3c0.175-0.746-0.304-1.499-1.06-1.629
						C203.234,175.583,201.052,175.484,199.449,176.692z"/>
					<path style="fill:#CB7A63;" d="M195.794,182.897l0.384,2.195c0.189,1.085,1.133,1.875,2.234,1.872l2.74-0.007
						c0.835-0.002,1.6-0.464,1.992-1.201l1.064-2.005L195.794,182.897z"/>
				</g>
				<g>
					<g>
						<polygon style="fill:#407BFF;" points="198.854,172.04 206.953,172.317 206.431,177.155 199.59,176.627 						"/>
					</g>
					<polygon style="opacity:0.3;fill:#FFFFFF;" points="198.854,172.04 206.953,172.317 206.431,177.155 199.59,176.627 					"/>
				</g>
			</g>
			<g>
				<g>
					<path style="fill:#263238;" d="M207.022,222.837l-1.331,2l-1.018-2.066l2.425-31.398c0.385-4.992-1.298-9.093-7.508-9.244
						c-5.808-0.141-9.333,3.827-9.738,8.81l-2.543,31.341l-1.391,1.994l-0.949-2.06l2.559-31.334
						c0.473-5.793,3.044-10.441,12.178-10.221c9.15,0.221,10.17,4.966,9.724,10.772L207.022,222.837z"/>
				</g>
				<g>
					<g>
						<path style="fill:#263238;" d="M181.285,201.658l-1.606-0.008c-3.344-0.016-6.178,2.459-6.612,5.775l-2.961,22.627
							l10.418,0.371L181.285,201.658z"/>
						<path style="opacity:0.2;fill:#FFFFFF;" d="M181.285,201.658l-1.606-0.008c-3.344-0.016-6.178,2.459-6.612,5.775
							l-2.961,22.627l10.418,0.371L181.285,201.658z"/>
					</g>
					<g>
						<g>
							<path style="fill:#263238;" d="M210.7,223.102l-2.354-0.066l0.229-31.398c0.036-4.992-1.934-9.093-8.154-9.244
								c-5.818-0.141-9.066,3.827-9.122,8.81l-0.352,31.341l-2.345-0.066l0.368-31.334c0.068-5.793,2.314-10.441,11.463-10.221
								c9.166,0.221,10.517,4.966,10.478,10.772L210.7,223.102z"/>
						</g>
						<path style="fill:#263238;" d="M221.741,231.648l-46.305-1.374l0.447-23.342c0.044-2.99,2.462-5.349,5.402-5.272l33.713,0.882
							c3.808,0.1,6.883,3.309,6.867,7.174L221.741,231.648z"/>
						<path style="opacity:0.4;fill:#FFFFFF;" d="M216.61,231.495l-36.085-1.071c-2.812-0.083-5.055-2.483-5.013-5.356l0.371-18.137
							c0.044-2.99,2.462-5.349,5.402-5.272l33.713,0.882c3.808,0.1,6.883,3.309,6.867,7.174l-0.102,16.703
							C221.751,229.304,219.443,231.579,216.61,231.495z"/>
						<g style="opacity:0.3;">
							<path style="fill:#FFFFFF;" d="M210.7,223.102l-1.191,2l-1.162-2.066l0.229-31.398c0.036-4.992-1.934-9.093-8.154-9.244
								c-5.818-0.141-9.066,3.827-9.122,8.81l-0.352,31.341l-1.251,1.994l-1.093-2.061l0.368-31.334
								c0.068-5.793,2.314-10.441,11.463-10.221c9.166,0.221,10.517,4.966,10.478,10.772L210.7,223.102z"/>
						</g>
						<polygon style="fill:#263238;" points="191.744,210.434 187.885,210.329 187.902,208.876 191.76,208.98 						"/>
						<polygon style="fill:#263238;" points="191.64,219.855 187.772,219.747 187.79,218.288 191.656,218.395 						"/>
						<polygon style="fill:#263238;" points="211.576,210.969 207.701,210.865 207.712,209.408 211.585,209.512 						"/>
						<polygon style="fill:#263238;" points="211.514,220.41 207.631,220.302 207.642,218.839 211.523,218.947 						"/>
						<polygon style="fill:#FFFFFF;" points="204.193,211.598 195.907,211.374 195.938,208.265 204.218,208.487 						"/>
					</g>
				</g>
			</g>
			<g>
				<g>
					<g>
						<path style="fill:#263238;" d="M239.941,96.992c0.319-0.061,0.658,0.271,0.762,0.753c0.103,0.482-0.064,0.934-0.382,0.995
							c-0.319,0.061-0.658-0.271-0.761-0.753C239.43,97.489,239.622,97.053,239.941,96.992z"/>
						<path style="fill:#263238;" d="M239.998,97.396c0.326-0.152,0.625-0.492,0.756-0.827c-0.279,0.261-0.662,0.406-1.044,0.397
							C239.856,97.048,239.99,97.228,239.998,97.396z"/>
						<path style="fill:#B74D3C;" d="M240.636,102.29c0.84,0.035,1.651-0.304,2.217-0.925c-1.225-1.064-2.298-2.289-3.192-3.643
							L240.636,102.29z"/>
						<path style="fill:#263238;" d="M237.263,96.203c0.463-0.581,1.179-0.903,1.921-0.864l0,0c0.031,0.01,0.063,0.015,0.096,0.014
							c0.163-0.003,0.292-0.138,0.289-0.301c-0.003-0.163-0.138-0.292-0.3-0.289c-0.928-0.075-1.835,0.303-2.434,1.016
							c-0.046,0.053-0.07,0.121-0.07,0.192c0,0.163,0.132,0.295,0.295,0.295C237.133,96.272,237.205,96.249,237.263,96.203z"/>
						<path style="fill:#CB7A63;" d="M234.218,125.103c-8.319,0.089-9.594-4.439-9.594-4.439c2.471-2.426,2.594-6.866,2.069-10.824
							c0.637,0.895,1.431,1.677,2.471,2.37c1.99,1.308,6.307-0.794,6.307-0.794c0.011,0,0,0.738,0.056,1.8
							c0.134,2.594,0.704,7.145,3.064,7.85C238.591,121.067,243.388,125.003,234.218,125.103z"/>
						<path style="fill:#CB7A63;" d="M235.593,112.091c-0.088,0.382-0.177,0.765-0.23,1.17c-0.034,0.023-0.069,0.035-0.104,0.036
							c-1.948,0.484-4.102,0.218-6.092-1.09c-1.048-0.694-1.842-1.471-2.476-2.366c-0.126-1.004-0.31-1.985-0.494-2.885l9.059,4.954
							L235.593,112.091z"/>
						<g>
							<path style="fill:#CB7A63;" d="M241.554,105.299c-0.059,3.076-1.742,5.672-4.096,7.084l-0.012,0
								c-0.011,0.012-0.023,0.012-0.035,0.012c-0.632,0.4-1.322,0.685-2.048,0.866c-0.034,0.023-0.069,0.035-0.104,0.036
								c-1.948,0.484-4.102,0.218-6.092-1.09c-1.048-0.694-1.842-1.471-2.476-2.366c-1.631-2.237-2.311-5.223-3.477-9.419
								c-0.36-1.233-0.432-2.538-0.203-3.801c0.818-4.517,5.144-7.512,9.65-6.694C238.984,91.05,241.678,99.679,241.554,105.299z"/>
							<path style="opacity:0.2;" d="M237.003,112.546c-0.582,0.369-0.872,0.514-1.476,0.671c-0.056-1.062-0.044-1.8-0.056-1.8
								c0.056-0.928,0.123-1.856,0.123-1.856C235.594,109.594,236.567,112.546,237.003,112.546z"/>
						</g>
						<path style="fill:#263238;" d="M239.369,93.954c-0.677,1.076-2.809,1.986-2.737,1.736c0.367-0.893,0.299-2.607-0.808-2.206
							c0.306,0.683,1.224,5.818,0.808,6.441c-0.228,0.341-0.443,4.449-2.192,8.071c-1.395,2.89-1.395,3.786-1.395,3.786
							l-5.679,1.096c-2.126-0.266-4.106-2.982-4.281-3.283c-0.742-1.277-3.011-2.954-4.191-3.841
							c-0.51-0.384-0.909-0.949-1.125-1.555c-0.389-1.09,0.406-5.018,0.579-6.865c0.249-2.657,1.644-5.115,5.498-6.693
							c2.383-0.976,4.388-3.117,6.819-3.964c2.432-0.847,5.324-0.809,7.378,0.744C239.053,88.185,241.066,91.257,239.369,93.954z"/>
						<path style="fill:#CB7A63;" d="M236.402,97.694c1.75,0.513,2.662,3.091,2.737,4.729c0.085,1.809-1.123,2.952-2.7,1.741
							c-1.188-0.933-2.036-2.23-2.415-3.692C233.596,98.699,234.652,97.18,236.402,97.694z"/>
						<g>
							<path style="fill:#407BFF;" d="M238.506,103.718c0,0.422-0.342,0.764-0.764,0.764s-0.764-0.342-0.764-0.764
								c0-0.422,0.342-0.764,0.764-0.764S238.506,103.296,238.506,103.718z"/>
							<path style="opacity:0.3;fill:#FFFFFF;" d="M238.506,103.718c0,0.422-0.342,0.764-0.764,0.764s-0.764-0.342-0.764-0.764
								c0-0.422,0.342-0.764,0.764-0.764S238.506,103.296,238.506,103.718z"/>
						</g>
					</g>
					<g id="_x3C_Group_x3E_">
						<g>
							<path style="fill:#407BFF;" d="M222.236,123.663c0,0,1.293-3.989,3.242-5.249c1.95-1.26,10.509,0.047,11.85,0.572
								c1.341,0.525,2.695,3.616,2.695,3.616L222.236,123.663z"/>
							<path style="opacity:0.3;fill:#FFFFFF;" d="M222.236,123.663c0,0,1.293-3.989,3.242-5.249
								c1.95-1.26,10.509,0.047,11.85,0.572c1.341,0.525,2.695,3.616,2.695,3.616L222.236,123.663z"/>
							<g>
								<g>
									<path style="fill:#407BFF;" d="M241.781,121.959c-1.332-0.219-1.699-0.42-3.225-0.54c-4.592-0.216-9.194-0.166-13.78,0.149
										c-1.675,0.12-3.286,0.444-4.885,0.827c-3.285,0.789-5.5,3.85-5.256,7.195c0.682,9.362,3.449,14.855,3.857,21.018
										c0.813,12.279-1.146,20.888-1.479,23.754l6.295,0.956c11.244-0.267,18.709-2.684,24.897-5.316l0,0
										c0,0-1.622-14.845-0.054-20.194c4.285-14.614,1.503-16.926,0.658-21.11C248.105,125.22,245.307,122.537,241.781,121.959z"
										/>
									<g>
										<path style="opacity:0.1;fill:#FFFFFF;" d="M248.151,149.804c-0.514,1.744-0.682,4.495-0.682,7.402
											c0,6.038,0.738,12.792,0.738,12.792c-6.184,2.639-13.653,5.054-24.902,5.322l-6.295-0.962
											c0.335-2.863,2.292-11.472,1.487-23.75c-0.414-6.161-3.175-11.651-3.858-21.022c-0.246-3.343,1.968-6.407,5.255-7.19
											c1.599-0.391,3.209-0.704,4.886-0.827c4.585-0.313,9.18-0.369,13.776-0.157c1.521,0.123,1.89,0.324,3.22,0.548
											c3.533,0.581,6.329,3.254,7.033,6.743c0.302,1.498,0.861,2.762,1.241,4.439c0.469,2.035,0.693,4.685-0.09,9.124
											C249.604,144.347,249.023,146.818,248.151,149.804z"/>
									</g>
								</g>
								<g>
									<path style="fill:#407BFF;" d="M243.59,121.506c2.298,0.324,4.575,0.783,6.863,1.169c2.28,0.44,4.558,0.892,6.83,1.381
										l-0.823-0.065c1.014,0.045,1.906,0.124,2.469,0.159c0.272,0.02,0.463,0.015,0.392,0.056
										c-0.014,0.023-0.147,0.065-0.302,0.165c-0.194,0.104-0.428,0.273-0.682,0.533c-0.524,0.525-0.734,1.228-0.719,1.436
										c-0.004,0.227,0.068,0.174,0.08-0.002c0.039-0.361-0.038-1.051-0.187-1.761l0.104,0.295
										c-1.153-3.328-2.248-6.679-3.251-10.067c-0.973-3.399-1.908-6.813-2.572-10.333c-0.255-1.351,0.634-2.654,1.986-2.909
										c1.034-0.195,2.041,0.285,2.57,1.123c1.905,3.034,3.538,6.174,5.133,9.329c1.566,3.167,3.039,6.37,4.454,9.595l0.104,0.295
										c0.387,1.02,0.765,2.093,0.992,3.536c0.104,0.724,0.177,1.586,0.012,2.706c-0.153,1.095-0.753,2.664-1.935,3.817
										c-0.578,0.579-1.203,0.986-1.798,1.298c-0.568,0.285-1.127,0.487-1.583,0.611c-0.952,0.263-1.667,0.34-2.299,0.405
										c-1.248,0.118-2.169,0.123-2.966,0.17l-0.128,0.008l-0.696-0.073c-2.311-0.242-4.617-0.52-6.921-0.811
										c-2.295-0.344-4.602-0.616-6.887-1.023c-3.04-0.541-5.066-3.445-4.524-6.486
										C237.835,123.093,240.628,121.093,243.59,121.506z"/>
								</g>
								<g style="opacity:0.1;">
									<path style="fill:#FFFFFF;" d="M243.59,121.506c2.298,0.324,4.575,0.783,6.863,1.169c2.28,0.44,4.558,0.892,6.83,1.381
										l-0.823-0.065c1.014,0.045,1.906,0.124,2.469,0.159c0.272,0.02,0.463,0.015,0.392,0.056
										c-0.014,0.023-0.147,0.065-0.302,0.165c-0.194,0.104-0.428,0.273-0.682,0.533c-0.524,0.525-0.734,1.228-0.719,1.436
										c-0.004,0.227,0.068,0.174,0.08-0.002c0.039-0.361-0.038-1.051-0.187-1.761l0.104,0.295
										c-1.153-3.328-2.248-6.679-3.251-10.067c-0.973-3.399-1.908-6.813-2.572-10.333c-0.255-1.351,0.634-2.654,1.986-2.909
										c1.034-0.195,2.041,0.285,2.57,1.123c1.905,3.034,3.538,6.174,5.133,9.329c1.566,3.167,3.039,6.37,4.454,9.595l0.104,0.295
										c0.387,1.02,0.765,2.093,0.992,3.536c0.104,0.724,0.177,1.586,0.012,2.706c-0.153,1.095-0.753,2.664-1.935,3.817
										c-0.578,0.579-1.203,0.986-1.798,1.298c-0.568,0.285-1.127,0.487-1.583,0.611c-0.952,0.263-1.667,0.34-2.299,0.405
										c-1.248,0.118-2.169,0.123-2.966,0.17l-0.128,0.008l-0.696-0.073c-2.311-0.242-4.617-0.52-6.921-0.811
										c-2.295-0.344-4.602-0.616-6.887-1.023c-3.04-0.541-5.066-3.445-4.524-6.486
										C237.835,123.093,240.628,121.093,243.59,121.506z"/>
								</g>
							</g>
						</g>
					</g>
					<g>
						<g>
							<g>
								<g>
									<polygon style="fill:#407BFF;" points="284.943,99.978 314.924,99.059 314.464,89.667 284.543,91.637 									"/>
									<polygon style="fill:#407BFF;" points="262.282,100.338 286.526,99.558 286.157,91.857 261.956,93.418 									"/>
									<polygon style="fill:#263238;" points="283.325,99.755 284.914,99.923 284.52,91.695 282.955,92.015 									"/>
									<polygon style="opacity:0.2;" points="283.325,99.755 284.914,99.923 284.52,91.695 282.955,92.015 									"/>
									<polygon style="fill:#263238;" points="284.916,99.979 286.544,99.929 286.141,91.532 284.517,91.639 									"/>
									<polygon style="fill:#263238;" points="258.518,99.2 260.924,100.317 260.606,93.57 258.316,94.913 									"/>
									<g>
										<polygon style="fill:#263238;" points="246.198,99.116 253.327,98.745 253.179,95.587 246.053,96.013 										"/>
										<polygon style="opacity:0.2;" points="246.198,99.116 253.327,98.745 253.179,95.587 246.053,96.013 										"/>
									</g>
									<polygon style="fill:#263238;" points="252.352,99.383 260.284,99.078 260.076,94.658 252.153,95.127 									"/>
									<polygon style="opacity:0.2;" points="258.518,99.2 260.924,100.317 260.606,93.57 258.316,94.913 									"/>
									<polygon style="fill:#263238;" points="260.967,100.381 262.282,100.338 261.956,93.418 260.643,93.503 									"/>
									<polygon style="fill:#263238;" points="313.903,99.09 318.606,98.922 318.144,89.494 313.445,89.734 									"/>
									<g>
										<path style="fill:#407BFF;" d="M315.989,99.757l6-0.168l0.149-0.415c1.282-3.557,1.027-7.487-0.704-10.848v0l-5.986,0.414
											l0.131,0.314C317.001,92.456,317.147,96.257,315.989,99.757L315.989,99.757z"/>
									</g>
									<g>
										<g style="opacity:0.4;">
											<path style="fill:#FFFFFF;" d="M309.598,90.709l2.427-0.15l0.049,1.035l-2.465,0.142
												C309.55,91.398,309.57,91.052,309.598,90.709z"/>
											<path style="fill:#FFFFFF;" d="M308.13,90.824c-0.026,0.342-0.042,0.685,0.011,1.021l-21.045,1.192l-0.051-0.935
												L308.13,90.824z"/>
										</g>
										<g style="opacity:0.4;">
											<polygon style="fill:#FFFFFF;" points="262.469,93.964 262.513,94.803 282.286,93.629 282.243,92.711 											"/>
										</g>
										<g style="opacity:0.4;">
											<polygon style="fill:#FFFFFF;" points="315.978,89.064 316.037,90.112 320.727,89.803 320.676,88.734 											"/>
										</g>
									</g>
								</g>
								<g>
									<path style="opacity:0.3;enable-background:new    ;" d="M321.384,98.204c-0.03,0.358-0.048,0.717,0.009,1.071
										l-4.857,0.166l-0.059-1.049L321.384,98.204z"/>
									<path style="opacity:0.3;enable-background:new    ;" d="M312.686,97.619c-0.028,0.347-0.044,0.695,0.01,1.037
										l-25.742,0.92l-0.051-0.934L312.686,97.619z"/>
									<path style="opacity:0.3;enable-background:new    ;" d="M282.049,98.523c-0.02,0.306-0.032,0.615,0.012,0.918
										l-19.127,0.672l-0.044-0.841L282.049,98.523z"/>
								</g>
							</g>
							<g>
								<path style="fill:#407BFF;" d="M244.595,96.133l0.062,3.02c0.01,0.513,0.475,0.922,1.04,0.912l2.451-0.042l-0.102-4.948
									l-2.45,0.09C245.032,95.187,244.585,95.619,244.595,96.133z"/>
							</g>
						</g>
						<path style="fill:#CE7A63;" d="M257.265,104.511l0.931-5.628c0.039-0.234,0.047-0.472,0.026-0.707l-0.267-2.983
							c-0.044-0.386-0.315-0.765-0.735-0.894l-4.496-0.052c-0.593-0.187-1.245,0.097-1.442,0.625l-0.807,3.687
							c-0.061,0.276-0.055,0.563,0.017,0.836l1.334,5.077c0.129,0.424,0.52,0.754,1.004,0.847l2.938,0.026
							C256.46,105.478,257.124,105.109,257.265,104.511z"/>
						<g>
							<polygon style="fill:#407BFF;" points="259.909,106.882 252.264,109.571 250.991,104.874 257.555,102.877 							"/>
							<polygon style="opacity:0.3;fill:#FFFFFF;" points="259.909,106.882 252.264,109.571 250.991,104.874 257.555,102.877 
															"/>
						</g>
					</g>
					<path style="opacity:0.2;" d="M249.962,142.267l-5.859-11.059l5.949,1.934C250.521,135.178,250.745,137.828,249.962,142.267z"
						/>
				</g>
				<g>
					<polygon style="fill:#CE7A63;" points="280.167,234.075 278.955,249.096 285.792,249.226 287.668,233.752 					"/>
					<g>
						<path style="fill:#263238;" d="M286.875,247.174l-7.799,0.158c-0.294,0.006-0.547,0.229-0.608,0.539l-1.343,6.84
							c-0.123,0.606,0.234,1.2,0.797,1.327c0.072,0.016,0.146,0.024,0.22,0.024c2.811-0.109,5.309-0.325,8.81-0.391
							c4.13-0.082,3.088,0.469,7.944,0.445c2.926-0.018,3.427-3.599,2.184-3.749c-5.686-0.652-6.293-2.481-8.505-4.619
							C288.094,247.339,287.489,247.135,286.875,247.174z"/>
					</g>
					<g>
						<polygon style="fill:#CE7A63;" points="205.509,298.446 202.744,312.242 210.095,314.487 213.636,300.396 						"/>
						<path style="fill:#263238;" d="M244.84,170.604c0,0-10.463,61.064-16.146,79.035c-4.046,12.796-14.9,54.66-14.9,54.66
							l-9.846-2.183c0,0-1.101-28.496,4.375-43.205c1.868-5.018,4.306-9.545,4.966-12.656c2.82-13.291-2.992-37.403-0.423-55.387
							c1.393-9.748,4.368-16.7,4.368-16.7L244.84,170.604z"/>
						<path style="fill:#263238;" d="M228.694,249.639c-4.046,12.796-14.9,54.66-14.9,54.66l-9.846-2.183
							c0,0-1.101-28.496,4.375-43.205c1.868-5.018,4.306-9.545,4.966-12.656c2.82-13.291-2.992-37.403-0.423-55.387
							c1.393-9.748,4.368-16.7,4.368-16.7"/>
						<polygon style="opacity:0.2;enable-background:new    ;" points="232.011,189.479 237.278,210.161 241.131,190.378 						"/>
						<path style="fill:#263238;" d="M288.148,241.28l-9.62,0.31c0,0,0.71-12.59,0.71-30.95c0-2.83,0.44-5.62,1.06-8.12
							c1.37-5.61,3.59-9.79,3.59-9.79s-1.03,0.06-2.79,0.14c-5.44,0.28-39.162,2.022-39.822,1.972
							c-0.5-0.05-3.564,0.356-9.058-2.322c-10.208-4.977-10.31-18.95-10.31-18.95l26.29-3.57c0,0.02,0.43,0.08,6.76,0.19
							c19.19,0.33,42.773,1.073,46.912,7.661C307.691,187.119,288.148,241.28,288.148,241.28z"/>
						<g>
							<path style="fill:#263238;" d="M210.463,310.916l-8.067,0.109c-0.304,0.004-0.553,0.229-0.599,0.54l-1.004,6.895
								c-0.093,0.611,0.31,1.213,0.9,1.345c0.076,0.017,0.152,0.026,0.229,0.026c2.904-0.092,5.48-0.294,9.101-0.338
								c4.273-0.056,3.224,0.494,8.252,0.501c3.029,0.001,3.345-3.611,2.05-3.771c-5.925-0.695-6.658-2.545-9.069-4.717
								C211.736,311.09,211.098,310.88,210.463,310.916z"/>
						</g>
					</g>
				</g>
			</g>
		</g>
		<path style="opacity:0.2;enable-background:new    ;" d="M280.297,202.52c1.37-5.61,3.59-9.79,3.59-9.79s-1.03,0.06-2.79,0.14
			c-0.08-0.03-0.16-0.05-0.26-0.05l7.012-0.59L280.297,202.52z"/>
	</g>
</g>
<g id="Sun">
	<g>
		<g>
			<g>
				<circle style="fill:#407BFF;" cx="96.542" cy="115.492" r="12.266"/>
				<circle style="opacity:0.6;fill:#FFFFFF;" cx="96.542" cy="115.492" r="12.266"/>
			</g>
		</g>
		<g>
			<g>
				<g>
					<path style="fill:#407BFF;" d="M96.564,98.549c-1.008,0-1.824-0.816-1.824-1.824V88.67c0-1.008,0.816-1.824,1.824-1.824
						c1.008,0,1.824,0.816,1.824,1.824v8.055C98.388,97.732,97.572,98.549,96.564,98.549z"/>
				</g>
				<g>
					<path style="fill:#407BFF;" d="M96.564,143.95c-1.008,0-1.824-0.816-1.824-1.824v-8.055c0-1.008,0.816-1.824,1.824-1.824
						c1.008,0,1.824,0.816,1.824,1.824v8.055C98.388,143.133,97.572,143.95,96.564,143.95z"/>
				</g>
			</g>
			<g>
				<g>
					<path style="fill:#407BFF;" d="M83.36,104.018c-0.467,0-0.934-0.178-1.29-0.534l-3.482-3.482c-0.713-0.713-0.713-1.867,0-2.579
						c0.713-0.713,1.868-0.713,2.579,0l3.482,3.482c0.712,0.713,0.712,1.867,0,2.579C84.294,103.84,83.827,104.018,83.36,104.018z"
						/>
				</g>
				<g>
					<path style="fill:#407BFF;" d="M113.014,133.671c-0.467,0-0.933-0.178-1.29-0.534l-3.246-3.246
						c-0.713-0.712-0.713-1.867,0-2.579c0.712-0.713,1.867-0.713,2.579,0l3.246,3.246c0.713,0.712,0.713,1.867,0,2.579
						C113.947,133.493,113.48,133.671,113.014,133.671z"/>
				</g>
			</g>
			<g>
				<g>
					<path style="fill:#407BFF;" d="M77.891,117.222h-8.055c-1.008,0-1.824-0.816-1.824-1.824s0.816-1.824,1.824-1.824h8.055
						c1.008,0,1.824,0.816,1.824,1.824S78.899,117.222,77.891,117.222z"/>
				</g>
				<g>
					<path style="fill:#407BFF;" d="M123.292,117.222h-8.055c-1.008,0-1.824-0.816-1.824-1.824s0.816-1.824,1.824-1.824h8.055
						c1.007,0,1.824,0.816,1.824,1.824S124.3,117.222,123.292,117.222z"/>
				</g>
			</g>
			<g>
				<g>
					<path style="fill:#407BFF;" d="M80.29,133.496c-0.467,0-0.933-0.178-1.29-0.534c-0.713-0.712-0.713-1.867,0-2.579l3.07-3.07
						c0.711-0.713,1.867-0.713,2.579,0c0.712,0.712,0.712,1.867,0,2.579l-3.07,3.07C81.224,133.318,80.757,133.496,80.29,133.496z"
						/>
				</g>
				<g>
					<path style="fill:#407BFF;" d="M109.768,104.018c-0.467,0-0.933-0.178-1.29-0.534c-0.713-0.712-0.713-1.867,0-2.579
						l3.292-3.292c0.713-0.713,1.867-0.713,2.579,0c0.713,0.712,0.713,1.867,0,2.579l-3.292,3.292
						C110.701,103.84,110.234,104.018,109.768,104.018z"/>
				</g>
			</g>
		</g>
		<g style="opacity:0.6;">
			<g>
				<g>
					<path style="fill:#FFFFFF;" d="M96.564,98.549c-1.008,0-1.824-0.816-1.824-1.824V88.67c0-1.008,0.816-1.824,1.824-1.824
						c1.008,0,1.824,0.816,1.824,1.824v8.055C98.388,97.732,97.572,98.549,96.564,98.549z"/>
				</g>
				<g>
					<path style="fill:#FFFFFF;" d="M96.564,143.95c-1.008,0-1.824-0.816-1.824-1.824v-8.055c0-1.008,0.816-1.824,1.824-1.824
						c1.008,0,1.824,0.816,1.824,1.824v8.055C98.388,143.133,97.572,143.95,96.564,143.95z"/>
				</g>
			</g>
			<g>
				<g>
					<path style="fill:#FFFFFF;" d="M83.36,104.018c-0.467,0-0.934-0.178-1.29-0.534l-3.482-3.482c-0.713-0.713-0.713-1.867,0-2.579
						c0.713-0.713,1.868-0.713,2.579,0l3.482,3.482c0.712,0.713,0.712,1.867,0,2.579C84.294,103.84,83.827,104.018,83.36,104.018z"
						/>
				</g>
				<g>
					<path style="fill:#FFFFFF;" d="M113.014,133.671c-0.467,0-0.933-0.178-1.29-0.534l-3.246-3.246
						c-0.713-0.712-0.713-1.867,0-2.579c0.712-0.713,1.867-0.713,2.579,0l3.246,3.246c0.713,0.712,0.713,1.867,0,2.579
						C113.947,133.493,113.48,133.671,113.014,133.671z"/>
				</g>
			</g>
			<g>
				<g>
					<path style="fill:#FFFFFF;" d="M77.891,117.222h-8.055c-1.008,0-1.824-0.816-1.824-1.824s0.816-1.824,1.824-1.824h8.055
						c1.008,0,1.824,0.816,1.824,1.824S78.899,117.222,77.891,117.222z"/>
				</g>
				<g>
					<path style="fill:#FFFFFF;" d="M123.292,117.222h-8.055c-1.008,0-1.824-0.816-1.824-1.824s0.816-1.824,1.824-1.824h8.055
						c1.007,0,1.824,0.816,1.824,1.824S124.3,117.222,123.292,117.222z"/>
				</g>
			</g>
			<g>
				<g>
					<path style="fill:#FFFFFF;" d="M80.29,133.496c-0.467,0-0.933-0.178-1.29-0.534c-0.713-0.712-0.713-1.867,0-2.579l3.07-3.07
						c0.711-0.713,1.867-0.713,2.579,0c0.712,0.712,0.712,1.867,0,2.579l-3.07,3.07C81.224,133.318,80.757,133.496,80.29,133.496z"
						/>
				</g>
				<g>
					<path style="fill:#FFFFFF;" d="M109.768,104.018c-0.467,0-0.933-0.178-1.29-0.534c-0.713-0.712-0.713-1.867,0-2.579
						l3.292-3.292c0.713-0.713,1.867-0.713,2.579,0c0.713,0.712,0.713,1.867,0,2.579l-3.292,3.292
						C110.701,103.84,110.234,104.018,109.768,104.018z"/>
				</g>
			</g>
		</g>
	</g>
</g>
</svg>
