<?xml version="1.0" standalone="no"?>
<!DOCTYPE svg PUBLIC "-//W3C//DTD SVG 20010904//EN"
 "http://www.w3.org/TR/2001/REC-SVG-20010904/DTD/svg10.dtd">
<svg version="1.0" xmlns="http://www.w3.org/2000/svg"
 width="1920.000000pt" height="1920.000000pt" viewBox="0 0 1920.000000 1920.000000"
 preserveAspectRatio="xMidYMid meet">

<g transform="translate(0.000000,1920.000000) scale(0.100000,-0.100000)"
fill="#407BFF" stroke="none">
<path d="M8885 14635 c-283 -43 -465 -84 -760 -170 -543 -159 -1101 -442
-1570 -795 -212 -160 -329 -264 -560 -495 -445 -445 -804 -973 -1046 -1537
-72 -167 -149 -368 -173 -453 -10 -33 -22 -71 -27 -85 -24 -71 -92 -340 -119
-469 -76 -374 -95 -572 -95 -1021 0 -394 10 -535 56 -805 92 -545 240 -998
484 -1485 480 -959 1283 -1758 2255 -2245 537 -269 1099 -434 1745 -511 215
-26 835 -26 1050 0 443 53 913 164 1254 296 648 250 1163 568 1658 1022 562
515 990 1139 1285 1873 129 319 248 773 303 1150 59 406 59 1003 0 1410 -112
768 -379 1471 -798 2100 -195 292 -371 508 -614 753 -201 202 -264 259 -448
407 -217 173 -608 438 -586 397 5 -10 29 -44 53 -77 198 -272 365 -654 422
-970 87 -472 43 -957 -125 -1378 -134 -337 -327 -627 -580 -873 -113 -109
-279 -248 -287 -239 -3 2 0 68 6 147 20 260 24 460 13 666 -35 628 -172 1210
-398 1695 l-37 78 -100 -2 c-189 -4 -482 -45 -756 -105 -267 -59 -831 -208
-923 -243 l-29 -11 81 -86 c231 -247 389 -564 474 -954 44 -200 59 -347 64
-647 l6 -283 -35 0 -35 0 -6 253 c-17 746 -192 1250 -564 1624 -67 68 -118
125 -113 128 16 10 329 105 510 155 306 84 761 184 968 211 51 7 92 15 92 19
0 13 -162 274 -226 365 -55 78 -72 95 -93 95 -41 0 -322 -74 -471 -123 -175
-59 -537 -204 -765 -307 -212 -96 -537 -253 -565 -273 -20 -14 -16 -18 69 -81
396 -293 673 -753 834 -1381 61 -238 120 -575 104 -592 -4 -4 -22 1 -40 9 -33
16 -34 19 -46 105 -50 355 -126 643 -247 935 -67 161 -123 266 -224 417 -155
232 -324 393 -567 545 -24 14 -43 31 -43 36 0 17 470 249 770 381 253 110 593
244 673 264 15 4 27 11 27 15 0 13 -289 300 -302 300 -40 0 -350 -153 -545
-268 -171 -102 -507 -325 -708 -472 -159 -115 -372 -277 -404 -306 -11 -10 2
-20 80 -57 198 -93 341 -192 508 -352 221 -212 424 -503 581 -830 92 -195 242
-587 228 -601 -3 -3 -41 12 -84 34 -207 103 -462 183 -699 217 -111 17 -276
20 -579 12 l-59 -2 -41 75 c-140 253 -248 572 -291 865 -20 130 -27 452 -14
580 50 479 247 959 542 1324 165 204 431 434 656 568 147 87 140 82 116 82
-11 -1 -87 -11 -170 -24z m1944 -2697 l12 -73 48 -2 c115 -4 206 -55 259 -143
45 -76 41 -92 -28 -106 -138 -27 -126 -29 -154 31 -16 36 -34 59 -55 69 -54
28 -54 47 4 -280 5 -27 11 -33 43 -39 70 -13 177 -55 228 -91 62 -42 94 -105
94 -185 0 -118 -59 -203 -187 -266 l-75 -37 8 -60 c5 -34 8 -77 9 -96 l0 -34
-100 -17 c-55 -9 -103 -14 -107 -10 -4 3 -13 43 -21 89 -8 45 -16 85 -19 87
-2 3 -34 9 -71 14 -80 11 -160 46 -206 91 -36 35 -78 118 -83 165 -3 32 0 33
164 59 l37 6 16 -56 c21 -74 42 -104 83 -121 19 -8 35 -13 37 -11 6 6 -58 363
-67 375 -5 6 -27 14 -49 18 -101 17 -197 69 -237 129 -32 47 -40 132 -18 190
21 55 99 129 170 162 l52 24 -11 75 c-7 42 -8 78 -3 81 12 8 147 32 184 33 31
1 31 1 43 -71z m-2024 -982 c219 -46 402 -116 751 -289 276 -136 364 -160 632
-178 189 -12 377 -6 717 22 357 29 515 -18 515 -155 0 -89 -77 -215 -214 -351
-176 -175 -423 -308 -641 -346 -77 -13 -198 -10 -545 16 -378 28 -768 23 -757
-8 9 -31 212 -69 442 -84 170 -11 589 -8 725 6 273 28 517 98 748 215 81 41
285 182 420 289 275 219 422 318 592 399 157 75 353 136 510 159 182 26 397
-11 485 -84 80 -66 106 -186 61 -282 -27 -59 -58 -86 -181 -161 -146 -89 -292
-205 -699 -549 -582 -493 -931 -743 -1284 -920 -214 -108 -449 -194 -594 -219
-145 -25 -205 -30 -348 -30 -282 0 -427 37 -740 189 -221 107 -312 146 -460
197 -520 178 -1108 168 -1605 -29 -239 -94 -522 -257 -673 -387 -30 -25 -58
-46 -63 -46 -5 0 -8 416 -7 1058 l3 1057 60 30 c541 275 1089 457 1515 504 47
5 182 8 300 6 182 -3 233 -7 335 -29z m-2447 -250 c15 -8 36 -24 47 -36 20
-22 20 -39 23 -1244 2 -847 0 -1232 -8 -1258 -6 -20 -22 -46 -37 -57 -24 -19
-39 -21 -199 -21 -187 0 -211 5 -237 50 -16 26 -17 129 -17 1265 0 854 3 1242
11 1256 5 11 25 29 42 39 28 18 51 20 190 20 116 0 165 -4 185 -14z m5727
-2954 l70 -18 3 -104 c1 -57 1 -109 -2 -116 -3 -9 -21 -6 -65 12 -85 35 -202
49 -280 36 -134 -24 -225 -91 -283 -209 -28 -58 -32 -76 -36 -172 -3 -82 0
-122 13 -167 63 -223 291 -319 545 -230 41 15 83 29 93 33 15 5 17 -4 17 -101
l0 -107 -37 -16 c-65 -27 -144 -43 -248 -49 -383 -24 -635 210 -635 590 0 235
84 409 255 531 68 48 168 90 247 104 75 14 260 5 343 -17z m-5275 -92 l0 -100
-215 0 -215 0 0 -160 0 -160 200 0 201 0 -3 -97 -3 -98 -197 -3 -198 -2 -2
-238 -3 -237 -117 -3 -118 -3 0 601 0 600 335 0 335 0 0 -100z m535 0 l0 -95
-40 -1 c-22 0 -46 -2 -52 -2 -10 -2 -13 -91 -13 -407 l0 -405 55 0 56 0 -3
-92 -3 -93 -220 0 -220 0 -3 93 -3 92 51 0 50 0 0 405 0 405 -24 6 c-13 3 -34
4 -47 2 -24 -3 -24 -2 -27 95 l-3 97 223 -2 223 -3 0 -95z m525 -42 c51 -79
135 -208 186 -288 51 -80 130 -202 176 -272 46 -69 88 -134 93 -143 7 -11 10
122 10 412 l0 428 110 0 110 0 0 -595 0 -595 -120 -3 -120 -3 -70 108 c-38 59
-137 212 -221 338 -190 291 -258 396 -270 417 -5 10 -9 -152 -9 -420 l0 -437
-115 0 -115 0 -3 575 c-1 316 0 585 3 598 5 21 9 22 134 22 l129 0 92 -142z
m1557 105 c9 -21 62 -166 119 -323 56 -157 145 -403 198 -548 53 -144 96 -269
96 -277 0 -12 -21 -15 -124 -15 l-124 0 -48 140 -49 140 -221 0 -221 0 -45
-137 -45 -138 -123 -3 c-68 -1 -127 1 -130 5 -4 4 38 130 94 278 56 149 151
403 211 565 59 162 114 307 122 323 l14 27 130 0 130 0 16 -37z m854 0 c13
-21 60 -94 105 -163 45 -69 153 -237 242 -375 88 -137 166 -258 174 -268 11
-16 13 51 10 412 l-2 431 109 0 110 0 3 -27 c2 -16 2 -286 0 -600 l-2 -573
-119 0 -119 0 -92 143 c-52 78 -139 212 -195 297 -134 204 -211 323 -252 390
l-33 54 0 -439 1 -440 -113 0 -113 0 -3 585 c-1 322 0 591 3 598 3 9 39 12
134 12 l129 0 23 -37z m2749 -63 l0 -100 -214 0 -214 0 -1 -145 -2 -145 201 0
201 0 -3 -101 -3 -101 -185 1 c-102 0 -191 -3 -198 -8 -9 -6 -12 -43 -10 -152
l3 -144 228 -3 227 -2 0 -100 0 -100 -347 2 -348 3 -3 585 c-1 322 0 591 3
598 3 9 80 12 335 12 l330 0 0 -100z"/>
<path d="M10617 11679 c-23 -13 -47 -61 -47 -94 0 -39 27 -83 63 -105 18 -11
35 -20 38 -20 5 0 -17 140 -33 217 -2 8 -8 9 -21 2z"/>
<path d="M10953 11213 c3 -16 14 -81 24 -145 10 -65 21 -118 25 -118 3 0 23
16 44 35 37 35 37 35 32 100 -6 71 -14 84 -72 127 -49 35 -60 35 -53 1z"/>
<path d="M9207 7326 c-38 -111 -74 -220 -82 -243 l-13 -43 160 0 c124 0 159 3
156 13 -15 39 -147 445 -150 458 -2 8 -34 -75 -71 -185z"/>
</g>
</svg>
